<svg xmlns="http://www.w3.org/2000/svg" xmlns:ev="http://www.w3.org/2001/xml-events" xmlns:xlink="http://www.w3.org/1999/xlink" width="546.666" height="450.666" class="st13" color-interpolation-filters="sRGB" viewBox="0 0 410 338" xml:space="preserve"><style type="text/css">.st1,.st2{fill:#fff;stroke:#fff;stroke-width:.25}.st2{stroke:#000;stroke-width:.75}.st3{fill:#000;font-family:Calibri;font-size:.833336em}.st4{font-size:1em}.st5{marker-end:url(#mrkr4-23);stroke-linecap:round;stroke-linejoin:round;stroke-width:1}.st5,.st6,.st7{stroke:#000}.st6{fill:#000;fill-opacity:1;stroke-opacity:1;stroke-width:.35714285714286}.st7{stroke-linecap:round;stroke-linejoin:round;stroke-width:.75}.st8{fill:#000}.st9{stroke:#000;stroke-linecap:butt;stroke-width:.75}.st10{fill:none;stroke:none;stroke-width:.25}.st11,.st12{fill:#000;font-family:Calibri;font-size:.666664em}.st12{font-size:.75em}.st13{fill:none;fill-rule:evenodd;font-size:12px;overflow:visible;stroke-linecap:square;stroke-miterlimit:3}</style><defs id="Markers"><g id="lend4"><path d="M 2 1 L 0 0 L 2 -1 L 2 1" style="stroke:none"/></g><marker id="mrkr4-23" class="st6" markerUnits="strokeWidth" orient="auto" overflow="visible" refX="-5.6"><use transform="scale(-2.8,-2.8)" xlink:href="#lend4"/></marker></defs><g><title>Page-1</title><g id="shape1000-1" transform="translate(-2.53125,1.6875)"><title>Rectangle.1006.1000</title><rect width="416.531" height="340.313" x="0" y="-2.313" class="st1"/></g><g id="shape1-3" transform="translate(165.502,-220.542)"><title>Rectangle.2077</title><desc>Parameter Server</desc><rect width="81" height="94.184" x="0" y="243.816" class="st2"/><text x="4" y="331" class="st3">Parameter Server</text></g><g id="shape2-6" transform="translate(48.7092,-28.9375)"><title>Rectangle.2078</title><desc>Worker A</desc><rect width="81" height="94.184" x="0" y="243.816" class="st2"/><text x="4" y="331" class="st3">Worker<tspan class="st4"> </tspan>A</text></g><g id="shape3-10" transform="translate(165.502,-28.9375)"><title>Rectangle.2079</title><desc>Worker B</desc><rect width="81" height="94.184" x="0" y="243.816" class="st2"/><text x="4" y="331" class="st3">Worker<tspan class="st4"> </tspan>B</text></g><g id="shape4-14" transform="translate(282.294,-28.9375)"><title>Rectangle.2080</title><desc>Worker C</desc><rect width="81" height="94.184" x="0" y="243.816" class="st2"/><text x="4" y="331" class="st3">Worker<tspan class="st4"> </tspan>C</text></g><g id="shape5-18" transform="translate(-135.62,-26.9582) rotate(-45)"><title>Sheet.5</title><path d="M0 338 L121.14 338" class="st5"/></g><g id="shape6-24" transform="translate(68.4749,451.046) rotate(-135)"><title>Sheet.6</title><path d="M0 338 L121.14 338" class="st5"/></g><g id="shape7-29" transform="translate(-137.177,212.044) rotate(-90)"><title>Sheet.7</title><path d="M0 338 L79.44 338" class="st5"/></g><g id="shape8-34" transform="translate(547.682,127.005) rotate(90)"><title>Sheet.8</title><path d="M0 338 L79.44 338" class="st5"/></g><g id="shape9-39" transform="translate(420.337,361.43) rotate(135)"><title>Sheet.9</title><path d="M0 338 L121.14 338" class="st5"/></g><g id="shape10-44" transform="translate(468.32,-116.574) rotate(45)"><title>Sheet.10</title><path d="M0 338 L121.14 338" class="st5"/></g><g id="group12-49" transform="translate(72.91,-49.75)"><title>Sheet.12</title><g id="shape13-50" transform="translate(2.9976E-15,-27.1653)"><title>Circle.1237</title><path d="M0 335.28 A2.71655 2.71655 0 0 1 5.43 335.28 A2.71655 2.71655 0 1 1 0 335.28 Z" class="st2"/></g><g id="shape14-52" transform="translate(2.9976E-15,-16.2992)"><title>Circle.1238</title><path d="M0 335.28 A2.71655 2.71655 0 0 1 5.43 335.28 A2.71655 2.71655 0 1 1 0 335.28 Z" class="st2"/></g><g id="shape15-54" transform="translate(2.9976E-15,-5.43305)"><title>Circle.1239</title><path d="M0 335.28 A2.71655 2.71655 0 0 1 5.43 335.28 A2.71655 2.71655 0 1 1 0 335.28 Z" class="st2"/></g><g id="shape16-56" transform="translate(13.5827,-32.5984)"><title>Circle.1240</title><path d="M0 335.28 A2.71655 2.71655 0 0 1 5.43 335.28 A2.71655 2.71655 0 1 1 0 335.28 Z" class="st2"/></g><g id="shape17-58" transform="translate(13.5827,-21.7322)"><title>Circle.1241</title><path d="M0 335.28 A2.71655 2.71655 0 0 1 5.43 335.28 A2.71655 2.71655 0 1 1 0 335.28 Z" class="st2"/></g><g id="shape18-60" transform="translate(13.5827,-10.8661)"><title>Circle.1242</title><path d="M0 335.28 A2.71655 2.71655 0 0 1 5.43 335.28 A2.71655 2.71655 0 1 1 0 335.28 Z" class="st2"/></g><g id="shape19-62" transform="translate(13.5827,5.68434E-14)"><title>Circle.1243</title><path d="M0 335.28 A2.71655 2.71655 0 0 1 5.43 335.28 A2.71655 2.71655 0 1 1 0 335.28 Z" class="st2"/></g><g id="shape20-64" transform="translate(27.1654,-27.1653)"><title>Circle.1244</title><path d="M0 335.28 A2.71655 2.71655 0 0 1 5.43 335.28 A2.71655 2.71655 0 1 1 0 335.28 Z" class="st2"/></g><g id="shape21-66" transform="translate(27.1654,-16.2992)"><title>Circle.1245</title><path d="M0 335.28 A2.71655 2.71655 0 0 1 5.43 335.28 A2.71655 2.71655 0 1 1 0 335.28 Z" class="st2"/></g><g id="shape22-68" transform="translate(27.1654,-5.43305)"><title>Circle.1246</title><path d="M0 335.28 A2.71655 2.71655 0 0 1 5.43 335.28 A2.71655 2.71655 0 1 1 0 335.28 Z" class="st2"/></g><g id="shape23-70" transform="translate(-182.056,26.8853) rotate(-33.6901)"><title>Sheet.23</title><path d="M0 338 L9.79 338" class="st7"/></g><g id="shape24-73" transform="translate(192.921,26.885) rotate(33.69)"><title>Sheet.24</title><path d="M0 338 L9.79 338" class="st7"/></g><g id="shape25-76" transform="translate(307.749,156.96) rotate(63.4349)"><title>Sheet.25</title><path d="M0 338 L18.22 338" class="st7"/></g><g id="shape26-79" transform="translate(329.178,210.995) rotate(73.3007)"><title>Sheet.26</title><path d="M0 338 L28.36 338" class="st7"/></g><g id="shape27-82" transform="translate(-296.883,167.826) rotate(-63.435)"><title>Sheet.27</title><path d="M0 338 L18.22 338" class="st7"/></g><g id="shape28-85" transform="translate(-182.056,37.7514) rotate(-33.6901)"><title>Sheet.28</title><path d="M0 338 L9.79 338" class="st7"/></g><g id="shape29-88" transform="translate(192.921,37.7511) rotate(33.69)"><title>Sheet.29</title><path d="M0 338 L9.79 338" class="st7"/></g><g id="shape30-91" transform="translate(307.749,167.826) rotate(63.4349)"><title>Sheet.30</title><path d="M0 338 L18.22 338" class="st7"/></g><g id="shape31-94" transform="translate(-318.312,232.727) rotate(-73.3008)"><title>Sheet.31</title><path d="M0 338 L28.36 338" class="st7"/></g><g id="shape32-97" transform="translate(-296.883,178.692) rotate(-63.435)"><title>Sheet.32</title><path d="M0 338 L18.22 338" class="st7"/></g><g id="shape33-100" transform="translate(-182.056,48.6175) rotate(-33.6901)"><title>Sheet.33</title><path d="M0 338 L9.79 338" class="st7"/></g><g id="shape34-103" transform="translate(192.921,48.6172) rotate(33.69)"><title>Sheet.34</title><path d="M0 338 L9.79 338" class="st7"/></g><g id="shape35-106" transform="translate(206.505,21.4525) rotate(33.6902)"><title>Sheet.35</title><path d="M0 338 L9.79 338" class="st7"/></g><g id="shape36-109" transform="translate(321.332,151.527) rotate(63.435)"><title>Sheet.36</title><path d="M0 338 L18.22 338" class="st7"/></g><g id="shape37-112" transform="translate(342.761,205.562) rotate(73.3008)"><title>Sheet.37</title><path d="M0 338 L28.36 338" class="st7"/></g><g id="shape38-115" transform="translate(-168.473,32.3183) rotate(-33.6901)"><title>Sheet.38</title><path d="M0 338 L9.79 338" class="st7"/></g><g id="shape39-118" transform="translate(206.505,32.3186) rotate(33.6902)"><title>Sheet.39</title><path d="M0 338 L9.79 338" class="st7"/></g><g id="shape40-121" transform="translate(321.332,162.393) rotate(63.435)"><title>Sheet.40</title><path d="M0 338 L18.22 338" class="st7"/></g><g id="shape41-124" transform="translate(-283.301,173.259) rotate(-63.435)"><title>Sheet.41</title><path d="M0 338 L18.22 338" class="st7"/></g><g id="shape42-127" transform="translate(-168.473,43.1844) rotate(-33.6901)"><title>Sheet.42</title><path d="M0 338 L9.79 338" class="st7"/></g><g id="shape43-130" transform="translate(206.505,43.1847) rotate(33.6902)"><title>Sheet.43</title><path d="M0 338 L9.79 338" class="st7"/></g><g id="shape44-133" transform="translate(-304.73,238.16) rotate(-73.3008)"><title>Sheet.44</title><path d="M0 338 L28.36 338" class="st7"/></g><g id="shape45-136" transform="translate(-283.301,184.126) rotate(-63.435)"><title>Sheet.45</title><path d="M0 338 L18.22 338" class="st7"/></g><g id="shape46-139" transform="translate(-168.473,54.0505) rotate(-33.6901)"><title>Sheet.46</title><path d="M0 338 L9.79 338" class="st7"/></g></g><g id="group47-142" transform="translate(186.689,-243.5)"><title>Sheet.47</title><g id="shape48-143" transform="translate(2.9976E-15,-27.1653)"><title>Circle.1237</title><path d="M0 335.28 A2.71655 2.71655 0 0 1 5.43 335.28 A2.71655 2.71655 0 1 1 0 335.28 Z" class="st2"/></g><g id="shape49-145" transform="translate(2.9976E-15,-16.2992)"><title>Circle.1238</title><path d="M0 335.28 A2.71655 2.71655 0 0 1 5.43 335.28 A2.71655 2.71655 0 1 1 0 335.28 Z" class="st2"/></g><g id="shape50-147" transform="translate(2.9976E-15,-5.43305)"><title>Circle.1239</title><path d="M0 335.28 A2.71655 2.71655 0 0 1 5.43 335.28 A2.71655 2.71655 0 1 1 0 335.28 Z" class="st2"/></g><g id="shape51-149" transform="translate(13.5827,-32.5984)"><title>Circle.1240</title><path d="M0 335.28 A2.71655 2.71655 0 0 1 5.43 335.28 A2.71655 2.71655 0 1 1 0 335.28 Z" class="st2"/></g><g id="shape52-151" transform="translate(13.5827,-21.7322)"><title>Circle.1241</title><path d="M0 335.28 A2.71655 2.71655 0 0 1 5.43 335.28 A2.71655 2.71655 0 1 1 0 335.28 Z" class="st2"/></g><g id="shape53-153" transform="translate(13.5827,-10.8661)"><title>Circle.1242</title><path d="M0 335.28 A2.71655 2.71655 0 0 1 5.43 335.28 A2.71655 2.71655 0 1 1 0 335.28 Z" class="st2"/></g><g id="shape54-155" transform="translate(13.5827,5.68434E-14)"><title>Circle.1243</title><path d="M0 335.28 A2.71655 2.71655 0 0 1 5.43 335.28 A2.71655 2.71655 0 1 1 0 335.28 Z" class="st2"/></g><g id="shape55-157" transform="translate(27.1654,-27.1653)"><title>Circle.1244</title><path d="M0 335.28 A2.71655 2.71655 0 0 1 5.43 335.28 A2.71655 2.71655 0 1 1 0 335.28 Z" class="st2"/></g><g id="shape56-159" transform="translate(27.1654,-16.2992)"><title>Circle.1245</title><path d="M0 335.28 A2.71655 2.71655 0 0 1 5.43 335.28 A2.71655 2.71655 0 1 1 0 335.28 Z" class="st2"/></g><g id="shape57-161" transform="translate(27.1654,-5.43305)"><title>Circle.1246</title><path d="M0 335.28 A2.71655 2.71655 0 0 1 5.43 335.28 A2.71655 2.71655 0 1 1 0 335.28 Z" class="st2"/></g><g id="shape58-163" transform="translate(-182.056,26.8853) rotate(-33.6901)"><title>Sheet.58</title><path d="M0 338 L9.79 338" class="st7"/></g><g id="shape59-166" transform="translate(192.921,26.885) rotate(33.69)"><title>Sheet.59</title><path d="M0 338 L9.79 338" class="st7"/></g><g id="shape60-169" transform="translate(307.749,156.96) rotate(63.4349)"><title>Sheet.60</title><path d="M0 338 L18.22 338" class="st7"/></g><g id="shape61-172" transform="translate(329.178,210.995) rotate(73.3007)"><title>Sheet.61</title><path d="M0 338 L28.36 338" class="st7"/></g><g id="shape62-175" transform="translate(-296.883,167.826) rotate(-63.435)"><title>Sheet.62</title><path d="M0 338 L18.22 338" class="st7"/></g><g id="shape63-178" transform="translate(-182.056,37.7514) rotate(-33.6901)"><title>Sheet.63</title><path d="M0 338 L9.79 338" class="st7"/></g><g id="shape64-181" transform="translate(192.921,37.7511) rotate(33.69)"><title>Sheet.64</title><path d="M0 338 L9.79 338" class="st7"/></g><g id="shape65-184" transform="translate(307.749,167.826) rotate(63.4349)"><title>Sheet.65</title><path d="M0 338 L18.22 338" class="st7"/></g><g id="shape66-187" transform="translate(-318.312,232.727) rotate(-73.3008)"><title>Sheet.66</title><path d="M0 338 L28.36 338" class="st7"/></g><g id="shape67-190" transform="translate(-296.883,178.692) rotate(-63.435)"><title>Sheet.67</title><path d="M0 338 L18.22 338" class="st7"/></g><g id="shape68-193" transform="translate(-182.056,48.6175) rotate(-33.6901)"><title>Sheet.68</title><path d="M0 338 L9.79 338" class="st7"/></g><g id="shape69-196" transform="translate(192.921,48.6172) rotate(33.69)"><title>Sheet.69</title><path d="M0 338 L9.79 338" class="st7"/></g><g id="shape70-199" transform="translate(206.505,21.4525) rotate(33.6902)"><title>Sheet.70</title><path d="M0 338 L9.79 338" class="st7"/></g><g id="shape71-202" transform="translate(321.332,151.527) rotate(63.435)"><title>Sheet.71</title><path d="M0 338 L18.22 338" class="st7"/></g><g id="shape72-205" transform="translate(342.761,205.562) rotate(73.3008)"><title>Sheet.72</title><path d="M0 338 L28.36 338" class="st7"/></g><g id="shape73-208" transform="translate(-168.473,32.3183) rotate(-33.6901)"><title>Sheet.73</title><path d="M0 338 L9.79 338" class="st7"/></g><g id="shape74-211" transform="translate(206.505,32.3186) rotate(33.6902)"><title>Sheet.74</title><path d="M0 338 L9.79 338" class="st7"/></g><g id="shape75-214" transform="translate(321.332,162.393) rotate(63.435)"><title>Sheet.75</title><path d="M0 338 L18.22 338" class="st7"/></g><g id="shape76-217" transform="translate(-283.301,173.259) rotate(-63.435)"><title>Sheet.76</title><path d="M0 338 L18.22 338" class="st7"/></g><g id="shape77-220" transform="translate(-168.473,43.1844) rotate(-33.6901)"><title>Sheet.77</title><path d="M0 338 L9.79 338" class="st7"/></g><g id="shape78-223" transform="translate(206.505,43.1847) rotate(33.6902)"><title>Sheet.78</title><path d="M0 338 L9.79 338" class="st7"/></g><g id="shape79-226" transform="translate(-304.73,238.16) rotate(-73.3008)"><title>Sheet.79</title><path d="M0 338 L28.36 338" class="st7"/></g><g id="shape80-229" transform="translate(-283.301,184.126) rotate(-63.435)"><title>Sheet.80</title><path d="M0 338 L18.22 338" class="st7"/></g><g id="shape81-232" transform="translate(-168.473,54.0505) rotate(-33.6901)"><title>Sheet.81</title><path d="M0 338 L9.79 338" class="st7"/></g></g><g id="shape82-235" transform="translate(-216.322,269.341) rotate(-90)"><title>Rotation.2158</title><path d="M7.83 333.22 L10.99 332.06 L8.24 329.76 L7.83 333.22 Z" class="st8"/><path d="M0 329.76 A5.19973 5.19973 -180 1 0 9.41 332.64" class="st9"/><path d="M7.83 333.22 L10.99 332.06 L8.24 329.76 L7.83 333.22" class="st9"/></g><g id="shape88-239" transform="translate(-103.93,70.2756) rotate(-90)"><title>Rotation.2164</title><path d="M7.83 333.22 L10.99 332.06 L8.24 329.76 L7.83 333.22 Z" class="st8"/><path d="M0 329.76 A5.19973 5.19973 -180 1 0 9.41 332.64" class="st9"/><path d="M7.83 333.22 L10.99 332.06 L8.24 329.76 L7.83 333.22" class="st9"/></g><g id="shape89-243" transform="translate(210.146,-154.75)"><title>Sheet.89</title><desc>⑤</desc><rect width="17.604" height="12" x="0" y="326" class="st10"/><text x="3.49" y="334.4" class="st11">⑤</text></g><g id="shape91-246" transform="translate(80.7053,-93.4507)"><title>Sheet.91</title><path d="M0 338 L15.66 338" class="st5"/></g><g id="shape95-251" transform="translate(221.396,-250.75)"><title>Sheet.95</title><desc>④</desc><rect width="17.604" height="12" x="0" y="326" class="st10"/><text x="3.49" y="334.4" class="st11">④</text></g><g id="group99-254" transform="translate(189.727,-49.75)"><title>Sheet.99</title><g id="shape100-255" transform="translate(2.9976E-15,-27.1653)"><title>Circle.1237</title><path d="M0 335.28 A2.71655 2.71655 0 0 1 5.43 335.28 A2.71655 2.71655 0 1 1 0 335.28 Z" class="st2"/></g><g id="shape101-257" transform="translate(2.9976E-15,-16.2992)"><title>Circle.1238</title><path d="M0 335.28 A2.71655 2.71655 0 0 1 5.43 335.28 A2.71655 2.71655 0 1 1 0 335.28 Z" class="st2"/></g><g id="shape102-259" transform="translate(2.9976E-15,-5.43305)"><title>Circle.1239</title><path d="M0 335.28 A2.71655 2.71655 0 0 1 5.43 335.28 A2.71655 2.71655 0 1 1 0 335.28 Z" class="st2"/></g><g id="shape103-261" transform="translate(13.5827,-32.5984)"><title>Circle.1240</title><path d="M0 335.28 A2.71655 2.71655 0 0 1 5.43 335.28 A2.71655 2.71655 0 1 1 0 335.28 Z" class="st2"/></g><g id="shape104-263" transform="translate(13.5827,-21.7322)"><title>Circle.1241</title><path d="M0 335.28 A2.71655 2.71655 0 0 1 5.43 335.28 A2.71655 2.71655 0 1 1 0 335.28 Z" class="st2"/></g><g id="shape105-265" transform="translate(13.5827,-10.8661)"><title>Circle.1242</title><path d="M0 335.28 A2.71655 2.71655 0 0 1 5.43 335.28 A2.71655 2.71655 0 1 1 0 335.28 Z" class="st2"/></g><g id="shape106-267" transform="translate(13.5827,5.68434E-14)"><title>Circle.1243</title><path d="M0 335.28 A2.71655 2.71655 0 0 1 5.43 335.28 A2.71655 2.71655 0 1 1 0 335.28 Z" class="st2"/></g><g id="shape107-269" transform="translate(27.1654,-27.1653)"><title>Circle.1244</title><path d="M0 335.28 A2.71655 2.71655 0 0 1 5.43 335.28 A2.71655 2.71655 0 1 1 0 335.28 Z" class="st2"/></g><g id="shape108-271" transform="translate(27.1654,-16.2992)"><title>Circle.1245</title><path d="M0 335.28 A2.71655 2.71655 0 0 1 5.43 335.28 A2.71655 2.71655 0 1 1 0 335.28 Z" class="st2"/></g><g id="shape109-273" transform="translate(27.1654,-5.43305)"><title>Circle.1246</title><path d="M0 335.28 A2.71655 2.71655 0 0 1 5.43 335.28 A2.71655 2.71655 0 1 1 0 335.28 Z" class="st2"/></g><g id="shape110-275" transform="translate(-182.056,26.8853) rotate(-33.6901)"><title>Sheet.110</title><path d="M0 338 L9.79 338" class="st7"/></g><g id="shape111-278" transform="translate(192.921,26.885) rotate(33.69)"><title>Sheet.111</title><path d="M0 338 L9.79 338" class="st7"/></g><g id="shape112-281" transform="translate(307.749,156.96) rotate(63.4349)"><title>Sheet.112</title><path d="M0 338 L18.22 338" class="st7"/></g><g id="shape113-284" transform="translate(329.178,210.995) rotate(73.3007)"><title>Sheet.113</title><path d="M0 338 L28.36 338" class="st7"/></g><g id="shape114-287" transform="translate(-296.883,167.826) rotate(-63.435)"><title>Sheet.114</title><path d="M0 338 L18.22 338" class="st7"/></g><g id="shape115-290" transform="translate(-182.056,37.7514) rotate(-33.6901)"><title>Sheet.115</title><path d="M0 338 L9.79 338" class="st7"/></g><g id="shape116-293" transform="translate(192.921,37.7511) rotate(33.69)"><title>Sheet.116</title><path d="M0 338 L9.79 338" class="st7"/></g><g id="shape117-296" transform="translate(307.749,167.826) rotate(63.4349)"><title>Sheet.117</title><path d="M0 338 L18.22 338" class="st7"/></g><g id="shape118-299" transform="translate(-318.312,232.727) rotate(-73.3008)"><title>Sheet.118</title><path d="M0 338 L28.36 338" class="st7"/></g><g id="shape119-302" transform="translate(-296.883,178.692) rotate(-63.435)"><title>Sheet.119</title><path d="M0 338 L18.22 338" class="st7"/></g><g id="shape120-305" transform="translate(-182.056,48.6175) rotate(-33.6901)"><title>Sheet.120</title><path d="M0 338 L9.79 338" class="st7"/></g><g id="shape121-308" transform="translate(192.921,48.6172) rotate(33.69)"><title>Sheet.121</title><path d="M0 338 L9.79 338" class="st7"/></g><g id="shape122-311" transform="translate(206.505,21.4525) rotate(33.6902)"><title>Sheet.122</title><path d="M0 338 L9.79 338" class="st7"/></g><g id="shape123-314" transform="translate(321.332,151.527) rotate(63.435)"><title>Sheet.123</title><path d="M0 338 L18.22 338" class="st7"/></g><g id="shape124-317" transform="translate(342.761,205.562) rotate(73.3008)"><title>Sheet.124</title><path d="M0 338 L28.36 338" class="st7"/></g><g id="shape125-320" transform="translate(-168.473,32.3183) rotate(-33.6901)"><title>Sheet.125</title><path d="M0 338 L9.79 338" class="st7"/></g><g id="shape126-323" transform="translate(206.505,32.3186) rotate(33.6902)"><title>Sheet.126</title><path d="M0 338 L9.79 338" class="st7"/></g><g id="shape127-326" transform="translate(321.332,162.393) rotate(63.435)"><title>Sheet.127</title><path d="M0 338 L18.22 338" class="st7"/></g><g id="shape128-329" transform="translate(-283.301,173.259) rotate(-63.435)"><title>Sheet.128</title><path d="M0 338 L18.22 338" class="st7"/></g><g id="shape129-332" transform="translate(-168.473,43.1844) rotate(-33.6901)"><title>Sheet.129</title><path d="M0 338 L9.79 338" class="st7"/></g><g id="shape130-335" transform="translate(206.505,43.1847) rotate(33.6902)"><title>Sheet.130</title><path d="M0 338 L9.79 338" class="st7"/></g><g id="shape131-338" transform="translate(-304.73,238.16) rotate(-73.3008)"><title>Sheet.131</title><path d="M0 338 L28.36 338" class="st7"/></g><g id="shape132-341" transform="translate(-283.301,184.126) rotate(-63.435)"><title>Sheet.132</title><path d="M0 338 L18.22 338" class="st7"/></g><g id="shape133-344" transform="translate(-168.473,54.0505) rotate(-33.6901)"><title>Sheet.133</title><path d="M0 338 L9.79 338" class="st7"/></g></g><g id="shape134-347" transform="translate(-99.5056,269.341) rotate(-90)"><title>Rotation.2210</title><path d="M7.83 333.22 L10.99 332.06 L8.24 329.76 L7.83 333.22 Z" class="st8"/><path d="M0 329.76 A5.19973 5.19973 -180 1 0 9.41 332.64" class="st9"/><path d="M7.83 333.22 L10.99 332.06 L8.24 329.76 L7.83 333.22" class="st9"/></g><g id="shape135-351" transform="translate(108.5,-49.75)"><title>Sheet.135</title><desc>⑥</desc><rect width="17.604" height="12" x="0" y="326" class="st10"/><text x="3.49" y="334.4" class="st11">⑥</text></g><g id="shape137-354" transform="translate(197.522,-93.4507)"><title>Sheet.137</title><path d="M0 338 L15.66 338" class="st5"/></g><g id="group138-359" transform="translate(305.947,-49.75)"><title>Sheet.138</title><g id="shape139-360" transform="translate(2.9976E-15,-27.1653)"><title>Circle.1237</title><path d="M0 335.28 A2.71655 2.71655 0 0 1 5.43 335.28 A2.71655 2.71655 0 1 1 0 335.28 Z" class="st2"/></g><g id="shape140-362" transform="translate(2.9976E-15,-16.2992)"><title>Circle.1238</title><path d="M0 335.28 A2.71655 2.71655 0 0 1 5.43 335.28 A2.71655 2.71655 0 1 1 0 335.28 Z" class="st2"/></g><g id="shape141-364" transform="translate(2.9976E-15,-5.43305)"><title>Circle.1239</title><path d="M0 335.28 A2.71655 2.71655 0 0 1 5.43 335.28 A2.71655 2.71655 0 1 1 0 335.28 Z" class="st2"/></g><g id="shape142-366" transform="translate(13.5827,-32.5984)"><title>Circle.1240</title><path d="M0 335.28 A2.71655 2.71655 0 0 1 5.43 335.28 A2.71655 2.71655 0 1 1 0 335.28 Z" class="st2"/></g><g id="shape143-368" transform="translate(13.5827,-21.7322)"><title>Circle.1241</title><path d="M0 335.28 A2.71655 2.71655 0 0 1 5.43 335.28 A2.71655 2.71655 0 1 1 0 335.28 Z" class="st2"/></g><g id="shape144-370" transform="translate(13.5827,-10.8661)"><title>Circle.1242</title><path d="M0 335.28 A2.71655 2.71655 0 0 1 5.43 335.28 A2.71655 2.71655 0 1 1 0 335.28 Z" class="st2"/></g><g id="shape145-372" transform="translate(13.5827,5.68434E-14)"><title>Circle.1243</title><path d="M0 335.28 A2.71655 2.71655 0 0 1 5.43 335.28 A2.71655 2.71655 0 1 1 0 335.28 Z" class="st2"/></g><g id="shape146-374" transform="translate(27.1654,-27.1653)"><title>Circle.1244</title><path d="M0 335.28 A2.71655 2.71655 0 0 1 5.43 335.28 A2.71655 2.71655 0 1 1 0 335.28 Z" class="st2"/></g><g id="shape147-376" transform="translate(27.1654,-16.2992)"><title>Circle.1245</title><path d="M0 335.28 A2.71655 2.71655 0 0 1 5.43 335.28 A2.71655 2.71655 0 1 1 0 335.28 Z" class="st2"/></g><g id="shape148-378" transform="translate(27.1654,-5.43305)"><title>Circle.1246</title><path d="M0 335.28 A2.71655 2.71655 0 0 1 5.43 335.28 A2.71655 2.71655 0 1 1 0 335.28 Z" class="st2"/></g><g id="shape149-380" transform="translate(-182.056,26.8853) rotate(-33.6901)"><title>Sheet.149</title><path d="M0 338 L9.79 338" class="st7"/></g><g id="shape150-383" transform="translate(192.921,26.885) rotate(33.69)"><title>Sheet.150</title><path d="M0 338 L9.79 338" class="st7"/></g><g id="shape151-386" transform="translate(307.749,156.96) rotate(63.4349)"><title>Sheet.151</title><path d="M0 338 L18.22 338" class="st7"/></g><g id="shape152-389" transform="translate(329.178,210.995) rotate(73.3007)"><title>Sheet.152</title><path d="M0 338 L28.36 338" class="st7"/></g><g id="shape153-392" transform="translate(-296.883,167.826) rotate(-63.435)"><title>Sheet.153</title><path d="M0 338 L18.22 338" class="st7"/></g><g id="shape154-395" transform="translate(-182.056,37.7514) rotate(-33.6901)"><title>Sheet.154</title><path d="M0 338 L9.79 338" class="st7"/></g><g id="shape155-398" transform="translate(192.921,37.7511) rotate(33.69)"><title>Sheet.155</title><path d="M0 338 L9.79 338" class="st7"/></g><g id="shape156-401" transform="translate(307.749,167.826) rotate(63.4349)"><title>Sheet.156</title><path d="M0 338 L18.22 338" class="st7"/></g><g id="shape157-404" transform="translate(-318.312,232.727) rotate(-73.3008)"><title>Sheet.157</title><path d="M0 338 L28.36 338" class="st7"/></g><g id="shape158-407" transform="translate(-296.883,178.692) rotate(-63.435)"><title>Sheet.158</title><path d="M0 338 L18.22 338" class="st7"/></g><g id="shape159-410" transform="translate(-182.056,48.6175) rotate(-33.6901)"><title>Sheet.159</title><path d="M0 338 L9.79 338" class="st7"/></g><g id="shape160-413" transform="translate(192.921,48.6172) rotate(33.69)"><title>Sheet.160</title><path d="M0 338 L9.79 338" class="st7"/></g><g id="shape161-416" transform="translate(206.505,21.4525) rotate(33.6902)"><title>Sheet.161</title><path d="M0 338 L9.79 338" class="st7"/></g><g id="shape162-419" transform="translate(321.332,151.527) rotate(63.435)"><title>Sheet.162</title><path d="M0 338 L18.22 338" class="st7"/></g><g id="shape163-422" transform="translate(342.761,205.562) rotate(73.3008)"><title>Sheet.163</title><path d="M0 338 L28.36 338" class="st7"/></g><g id="shape164-425" transform="translate(-168.473,32.3183) rotate(-33.6901)"><title>Sheet.164</title><path d="M0 338 L9.79 338" class="st7"/></g><g id="shape165-428" transform="translate(206.505,32.3186) rotate(33.6902)"><title>Sheet.165</title><path d="M0 338 L9.79 338" class="st7"/></g><g id="shape166-431" transform="translate(321.332,162.393) rotate(63.435)"><title>Sheet.166</title><path d="M0 338 L18.22 338" class="st7"/></g><g id="shape167-434" transform="translate(-283.301,173.259) rotate(-63.435)"><title>Sheet.167</title><path d="M0 338 L18.22 338" class="st7"/></g><g id="shape168-437" transform="translate(-168.473,43.1844) rotate(-33.6901)"><title>Sheet.168</title><path d="M0 338 L9.79 338" class="st7"/></g><g id="shape169-440" transform="translate(206.505,43.1847) rotate(33.6902)"><title>Sheet.169</title><path d="M0 338 L9.79 338" class="st7"/></g><g id="shape170-443" transform="translate(-304.73,238.16) rotate(-73.3008)"><title>Sheet.170</title><path d="M0 338 L28.36 338" class="st7"/></g><g id="shape171-446" transform="translate(-283.301,184.126) rotate(-63.435)"><title>Sheet.171</title><path d="M0 338 L18.22 338" class="st7"/></g><g id="shape172-449" transform="translate(-168.473,54.0505) rotate(-33.6901)"><title>Sheet.172</title><path d="M0 338 L9.79 338" class="st7"/></g></g><g id="shape173-452" transform="translate(16.7148,269.341) rotate(-90)"><title>Rotation.2249</title><path d="M7.83 333.22 L10.99 332.06 L8.24 329.76 L7.83 333.22 Z" class="st8"/><path d="M0 329.76 A5.19973 5.19973 -180 1 0 9.41 332.64" class="st9"/><path d="M7.83 333.22 L10.99 332.06 L8.24 329.76 L7.83 333.22" class="st9"/></g><g id="shape176-456" transform="translate(313.742,-93.4507)"><title>Sheet.176</title><path d="M0 338 L15.66 338" class="st5"/></g><g id="shape1008-461" transform="translate(176,-110)"><title>Sheet.1008</title><desc>Intel SGX</desc><rect width="46.19" height="12" x="0" y="326" class="st10"/><text x="6.56" y="334.7" class="st12">Intel SGX</text></g><g id="shape1049-464" transform="translate(60.125,-86.5984)"><title>Sheet.1049</title><desc>②</desc><rect width="17.604" height="12" x="0" y="326" class="st10"/><text x="3.49" y="334.4" class="st11">②</text></g><g id="shape1051-467" transform="translate(124.25,-132.25)"><title>Sheet.1051</title><desc>③</desc><rect width="17.604" height="12" x="0" y="326" class="st10"/><text x="3.49" y="334.4" class="st11">③</text></g><g id="shape1057-470" transform="translate(167,-109.75)"><title>Sheet.1057</title><desc>①</desc><rect width="17.604" height="12" x="0" y="326" class="st10"/><text x="3.49" y="334.4" class="st11">①</text></g><g id="shape1059-473" transform="translate(182.75,-126.25)"><title>Sheet.1059</title><desc>③</desc><rect width="17.604" height="12" x="0" y="326" class="st10"/><text x="3.49" y="334.4" class="st11">③</text></g><g id="shape1060-476" transform="translate(177.323,-86.5984)"><title>Sheet.1060</title><desc>②</desc><rect width="17.604" height="12" x="0" y="326" class="st10"/><text x="3.49" y="334.4" class="st11">②</text></g><g id="shape1061-479" transform="translate(268.646,-133.75)"><title>Sheet.1061</title><desc>③</desc><rect width="17.604" height="12" x="0" y="326" class="st10"/><text x="3.49" y="334.4" class="st11">③</text></g><g id="shape1062-482" transform="translate(293.396,-86.5984)"><title>Sheet.1062</title><desc>②</desc><rect width="17.604" height="12" x="0" y="326" class="st10"/><text x="3.49" y="334.4" class="st11">②</text></g><g id="shape1063-485" transform="translate(225.5,-49.75)"><title>Sheet.1063</title><desc>⑥</desc><rect width="17.604" height="12" x="0" y="326" class="st10"/><text x="3.49" y="334.4" class="st11">⑥</text></g><g id="shape1064-488" transform="translate(342.5,-49.75)"><title>Sheet.1064</title><desc>⑥</desc><rect width="17.604" height="12" x="0" y="326" class="st10"/><text x="3.49" y="334.4" class="st11">⑥</text></g><g id="shape1065-491" transform="translate(120.146,-175.75)"><title>Sheet.1065</title><desc>⑤</desc><rect width="17.604" height="12" x="0" y="326" class="st10"/><text x="3.49" y="334.4" class="st11">⑤</text></g><g id="shape1066-494" transform="translate(286.646,-159.25)"><title>Sheet.1066</title><desc>⑤</desc><rect width="17.604" height="12" x="0" y="326" class="st10"/><text x="3.49" y="334.4" class="st11">⑤</text></g><g id="shape1067-497" transform="translate(-98.4248,-40.7521) rotate(-45)"><title>Sheet.1067</title><desc>Intel RA-TLS</desc><rect width="61.279" height="12" x="0" y="326" class="st10"/><text x="8.77" y="334.7" class="st12">Intel RA-TLS</text></g><g id="shape1068-500" transform="translate(460.002,-89.6748) rotate(45)"><title>Sheet.1068</title><desc>Intel RA-TLS</desc><rect width="61.279" height="12" x="0" y="326" class="st10"/><text x="8.77" y="334.7" class="st12">Intel RA-TLS</text></g><g id="shape1070-503" transform="translate(59,-110)"><title>Sheet.1070</title><desc>Intel SGX</desc><rect width="46.19" height="12" x="0" y="326" class="st10"/><text x="6.56" y="334.7" class="st12">Intel SGX</text></g><g id="shape1071-506" transform="translate(50,-109.75)"><title>Sheet.1071</title><desc>①</desc><rect width="17.604" height="12" x="0" y="326" class="st10"/><text x="3.49" y="334.4" class="st11">①</text></g><g id="shape1072-509" transform="translate(293,-110)"><title>Sheet.1072</title><desc>Intel SGX</desc><rect width="46.19" height="12" x="0" y="326" class="st10"/><text x="6.56" y="334.7" class="st12">Intel SGX</text></g><g id="shape1073-512" transform="translate(284,-109.75)"><title>Sheet.1073</title><desc>①</desc><rect width="17.604" height="12" x="0" y="326" class="st10"/><text x="3.49" y="334.4" class="st11">①</text></g><g id="shape1074-515" transform="translate(176,-299.25)"><title>Sheet.1074</title><desc>Intel SGX</desc><rect width="46.19" height="12" x="0" y="326" class="st10"/><text x="6.56" y="334.7" class="st12">Intel SGX</text></g><g id="shape1075-518" transform="translate(167,-299)"><title>Sheet.1075</title><desc>①</desc><rect width="17.604" height="12" x="0" y="326" class="st10"/><text x="3.49" y="334.4" class="st11">①</text></g><g id="shape1076-521" transform="translate(-140.375,201.279) rotate(-90)"><title>Sheet.1076</title><desc>Intel RA-TLS</desc><rect width="61.279" height="12" x="0" y="326" class="st10"/><text x="8.77" y="334.7" class="st12">Intel RA-TLS</text></g></g></svg>