<svg xmlns="http://www.w3.org/2000/svg" xmlns:ev="http://www.w3.org/2001/xml-events" xmlns:xlink="http://www.w3.org/1999/xlink" width="808" height="547" class="st16" color-interpolation-filters="sRGB" viewBox="0 0 606 410.25" xml:space="preserve"><style type="text/css">.st1,.st2{stroke-linecap:round;stroke-linejoin:round}.st1{fill:#fff;stroke:#fff;stroke-width:.75}.st2{stroke:#000;stroke-width:1}.st3{fill:#000;font-family:Times New Roman;font-size:.666664em}.st4{font-size:1em}.st5{fill:#000;font-family:Times New Roman;font-size:.833336em;font-weight:700}.st6{fill:none;stroke:none;stroke-linecap:round;stroke-linejoin:round;stroke-width:.75}.st7{fill:#000;font-family:Calibri;font-size:1.00001em}.st8{font-family:SimSun;font-size:1em}.st9{fill:#fff;stroke:#000;stroke-linecap:round;stroke-linejoin:round;stroke-width:1}.st10{font-family:SimSun;font-size:1.33332em}.st11{fill:#000;font-family:Calibri;font-size:.666664em}.st12{marker-end:url(#mrkr4-106);stroke:#000;stroke-dasharray:7,5;stroke-linecap:round;stroke-linejoin:round;stroke-width:1}.st13{fill:#000;fill-opacity:1;stroke:#000;stroke-opacity:1;stroke-width:.28409090909091}.st14,.st15{marker-end:url(#mrkr4-106);stroke:#000;stroke-linecap:round;stroke-linejoin:round;stroke-width:1}.st15{marker-start:url(#mrkr4-137)}.st16{fill:none;fill-rule:evenodd;font-size:12px;overflow:visible;stroke-linecap:square;stroke-miterlimit:3}</style><defs id="Markers"><g id="lend4"><path d="M 2 1 L 0 0 L 2 -1 L 2 1" style="stroke:none"/></g><marker id="mrkr4-106" class="st13" markerUnits="strokeWidth" orient="auto" overflow="visible" refX="-7.04"><use transform="scale(-3.52,-3.52)" xlink:href="#lend4"/></marker><marker id="mrkr4-137" class="st13" markerUnits="strokeWidth" orient="auto" overflow="visible" refX="6.68"><use transform="scale(3.52)" xlink:href="#lend4"/></marker></defs><g><title>Page-1</title><g id="shape927-1" transform="translate(0.375,-0.375)"><title>Sheet.927</title><rect width="605.25" height="409.5" x="0" y=".75" class="st1"/></g><g id="shape928-3" transform="translate(173.82,-292.875)"><title>Sheet.928</title><desc>Client hello - Version - Random - Cipher Suites - Extension</desc><path d="M0 358.17 L84.37 358.17 L84.37 410.25 L0 410.25 L0 358.17" class="st2"/><text x="2" y="367.41" class="st3">Client hello<tspan x="2" class="st4" dy="1.2em">-</tspan> Version<tspan x="2" class="st4" dy="1.2em">-</tspan> Random<tspan x="2" class="st4" dy="1.2em">-</tspan> Cipher Suites<tspan x="2" class="st4" dy="1.2em">-</tspan> Extension</text></g><g id="shape929-11" transform="translate(160.24,-9.375)"><title>Sheet.929</title><desc>Client</desc><path d="M0 40.23 L111.53 40.23 L111.53 410.25 L0 410.25 L0 40.23" class="st2"/><text x="42.71" y="63.23" class="st5">Client</text></g><g id="shape933-15" transform="translate(350.653,-250.125)"><title>Sheet.933</title><desc>Server hello - Version - Random - Cipher Suite</desc><path d="M0 367.5 L84.37 367.5 L84.37 410.25 L0 410.25 L0 367.5" class="st2"/><text x="2" y="376.87" class="st3">Server hello<tspan x="2" class="st4" dy="1.2em">-</tspan> Version<tspan x="2" class="st4" dy="1.2em">-</tspan> Random<tspan x="2" class="st4" dy="1.2em">-</tspan> Cipher Suite</text></g><g id="shape942-22" transform="translate(338.438,-9.375)"><title>Sheet.942</title><desc>Server</desc><path d="M0 40.23 L111.53 40.23 L111.53 410.25 L0 410.25 L0 40.23" class="st2"/><text x="41.61" y="63.23" class="st5">Server</text></g><g id="shape981-26" transform="translate(218.625,-384.144)"><title>Sheet.981</title><desc>Two-Way TLS 1.3 Handshake</desc><rect width="168.25" height="20" x="0" y="390.25" class="st6"/><text x="11.06" y="404.24" class="st7">Two-Way <tspan class="st4">TLS </tspan><tspan class="st8">1</tspan><tspan class="st8">.</tspan><tspan class="st8">3 </tspan><tspan class="st4">Handshake</tspan></text></g><g id="shape982-34" transform="translate(484.125,-108.205)"><title>Sheet.982</title><desc>X.509 Certificate …</desc><rect width="112.5" height="162.17" x="0" y="248.08" class="st9"/><text x="15.86" y="265.57" class="st7">X.509 Certificate<tspan x="48.25" class="st10" dy="2.025em">…</tspan></text></g><g id="shape983-38" transform="translate(498.188,-233.08)"><title>Sheet.983</title><desc>Version</desc><rect width="84.375" height="13.5" x="0" y="396.75" class="st9"/><text x="29.84" y="405.9" class="st11">Version</text></g><g id="shape984-41" transform="translate(498.188,-204.955)"><title>Sheet.984</title><desc>Subject</desc><rect width="84.375" height="13.5" x="0" y="396.75" class="st9"/><text x="30.17" y="405.9" class="st11">Subject</text></g><g id="shape985-44" transform="translate(498.188,-186.955)"><title>Sheet.985</title><desc>Subject Pubkey Info</desc><rect width="84.375" height="13.5" x="0" y="396.75" class="st9"/><text x="10.03" y="405.9" class="st11">Subject Pubkey Info</text></g><g id="shape986-47" transform="translate(498.188,-139.705)"><title>Sheet.986</title><desc>Extensions</desc><rect width="84.375" height="42.75" x="0" y="367.5" class="st9"/><text x="24.81" y="376.88" class="st11">Extensions</text></g><g id="shape987-50" transform="translate(498.188,-121.705)"><title>Sheet.987</title><desc>Signature</desc><rect width="84.375" height="13.5" x="0" y="396.75" class="st9"/><text x="26.71" y="405.9" class="st11">Signature</text></g><g id="shape988-53" transform="translate(503.25,-145.33)"><title>Sheet.988</title><desc>Quote Pubkey Hash</desc><rect width="73.688" height="22.5" x="0" y="387.75" class="st9"/><text x="26.61" y="396.6" class="st11">Quote<tspan x="15.98" class="st4" dy="1.2em">Pubkey Hash</tspan></text></g><g id="shape1001-57" transform="translate(350.653,-208.469)"><title>Sheet.1001</title><desc>Encrypted Extensions</desc><path d="M0 396.75 L84.37 396.75 L84.37 410.25 L0 410.25 L0 396.75" class="st2"/><text x="2" y="405.9" class="st3">Encrypted Extensions</text></g><g id="shape1002-61" transform="translate(350.653,-188.219)"><title>Sheet.1002</title><desc>Server Certificate</desc><path d="M0 396.75 L84.37 396.75 L84.37 410.25 L0 410.25 L0 396.75" class="st2"/><text x="2" y="405.9" class="st3">Server Certificate</text></g><g id="shape1003-65" transform="translate(351.135,-167.969)"><title>Sheet.1003</title><desc>Server Certificate Verify</desc><path d="M0 396.75 L84.37 396.75 L84.37 410.25 L0 410.25 L0 396.75" class="st2"/><text x="2" y="405.9" class="st3">Server Certificate Verify</text></g><g id="shape1004-69" transform="translate(351.375,-147.156)"><title>Sheet.1004</title><desc>Server Finished</desc><path d="M0 396.75 L84.37 396.75 L84.37 410.25 L0 410.25 L0 396.75" class="st2"/><text x="2" y="405.9" class="st3">Server Finished</text></g><g id="shape1007-73" transform="translate(173.82,-84.75)"><title>Sheet.1007</title><desc>Change Cipher Spec</desc><path d="M0 396.75 L84.37 396.75 L84.37 410.25 L0 410.25 L0 396.75" class="st2"/><text x="2" y="405.9" class="st3">Change Cipher Spec</text></g><g id="shape1008-77" transform="translate(173.82,-62.25)"><title>Sheet.1008</title><desc>Client Finished</desc><path d="M0 396.75 L84.37 396.75 L84.37 410.25 L0 410.25 L0 396.75" class="st2"/><text x="2" y="405.9" class="st3">Client Finished</text></g><g id="shape1010-81" transform="translate(173.82,-132)"><title>Sheet.1010</title><desc>Client Certificate</desc><path d="M0 396.75 L84.37 396.75 L84.37 410.25 L0 410.25 L0 396.75" class="st2"/><text x="2" y="405.9" class="st3">Client Certificate</text></g><g id="shape1012-85" transform="translate(173.82,-109.5)"><title>Sheet.1012</title><desc>Client Certificate Verify</desc><path d="M0 396.75 L84.37 396.75 L84.37 410.25 L0 410.25 L0 396.75" class="st2"/><text x="2" y="405.9" class="st3">Client Certificate Verify</text></g><g id="shape1014-89" transform="translate(350.653,-228.156)"><title>Sheet.1014</title><desc>Change Cipher Spec</desc><path d="M0 396.75 L84.37 396.75 L84.37 410.25 L0 410.25 L0 396.75" class="st2"/><text x="2" y="405.9" class="st3">Change Cipher Spec</text></g><g id="shape1015-93" transform="translate(351.938,-27.375)"><title>Sheet.1015</title><desc>Application Data</desc><path d="M0 392.5 L84.37 392.5 L84.37 410.25 L0 410.25 L0 392.5" class="st2"/><text x="2" y="403.77" class="st3">Application Data</text></g><g id="shape1016-97" transform="translate(172.5,-27.375)"><title>Sheet.1016</title><desc>Application Data</desc><path d="M0 392.5 L84.37 392.5 L84.37 410.25 L0 410.25 L0 392.5" class="st2"/><text x="2" y="403.77" class="st3">Application Data</text></g><g id="shape1020-101" transform="translate(439.125,-196.04)"><title>Sheet.1020</title><path d="M0 410.25 L33.46 410.25" class="st12"/></g><g id="shape1022-107" transform="translate(284.438,-315.375)"><title>Sheet.1022</title><path d="M0 410.25 L35.15 410.25" class="st14"/></g><g id="shape1023-112" transform="translate(324.375,599.094) rotate(180)"><title>Sheet.1023</title><path d="M0 410.25 L33.46 410.25" class="st14"/></g><g id="shape1024-117" transform="translate(283.875,-98.8125)"><title>Sheet.1024</title><path d="M0 410.25 L35.15 410.25" class="st14"/></g><g id="shape1026-122" transform="translate(286.125,-313.125)"><title>Sheet.1026</title><desc>1</desc><rect width="31.5" height="20" x="0" y="390.25" class="st6"/><text x="12.71" y="403.85" class="st7">1</text></g><g id="shape1028-125" transform="translate(288.375,-219.156)"><title>Sheet.1028</title><desc>2</desc><rect width="31.5" height="20" x="0" y="390.25" class="st6"/><text x="12.71" y="403.85" class="st7">2</text></g><g id="shape1029-128" transform="translate(286.125,-96.5625)"><title>Sheet.1029</title><desc>3</desc><rect width="31.5" height="20" x="0" y="390.25" class="st6"/><text x="12.71" y="403.85" class="st7">3</text></g><g id="shape1031-131" transform="translate(326.625,784.25) rotate(180)"><title>Sheet.1031</title><path d="M6.68 410.25 L7.04 410.25 L37.96 410.25" class="st15"/></g><g id="shape1032-139" transform="translate(286.125,-34.25)"><title>Sheet.1032</title><desc>4</desc><rect width="31.5" height="17.75" x="0" y="392.5" class="st6"/><text x="12.71" y="404.98" class="st7">4</text></g><g id="shape1033-142" transform="translate(9.375,-56.625)"><title>Sheet.1033</title><desc>X.509 Certificate …</desc><rect width="112.5" height="162.17" x="0" y="248.08" class="st9"/><text x="15.86" y="265.57" class="st7">X.509 Certificate<tspan x="48.25" class="st10" dy="2.025em">…</tspan></text></g><g id="shape1034-146" transform="translate(23.4375,-181.5)"><title>Sheet.1034</title><desc>Version</desc><rect width="84.375" height="13.5" x="0" y="396.75" class="st9"/><text x="29.84" y="405.9" class="st11">Version</text></g><g id="shape1035-149" transform="translate(23.4375,-153.375)"><title>Sheet.1035</title><desc>Subject</desc><rect width="84.375" height="13.5" x="0" y="396.75" class="st9"/><text x="30.17" y="405.9" class="st11">Subject</text></g><g id="shape1036-152" transform="translate(23.4375,-135.375)"><title>Sheet.1036</title><desc>Subject Pubkey Info</desc><rect width="84.375" height="13.5" x="0" y="396.75" class="st9"/><text x="10.03" y="405.9" class="st11">Subject Pubkey Info</text></g><g id="shape1037-155" transform="translate(23.4375,-88.125)"><title>Sheet.1037</title><desc>Extensions</desc><rect width="84.375" height="42.75" x="0" y="367.5" class="st9"/><text x="24.81" y="376.88" class="st11">Extensions</text></g><g id="shape1038-158" transform="translate(23.4375,-70.125)"><title>Sheet.1038</title><desc>Signature</desc><rect width="84.375" height="13.5" x="0" y="396.75" class="st9"/><text x="26.71" y="405.9" class="st11">Signature</text></g><g id="shape1039-161" transform="translate(28.5,-93.75)"><title>Sheet.1039</title><desc>Quote Pubkey Hash</desc><rect width="73.688" height="22.5" x="0" y="387.75" class="st9"/><text x="26.61" y="396.6" class="st11">Quote<tspan x="15.98" class="st4" dy="1.2em">Pubkey Hash</tspan></text></g><g id="shape1041-165" transform="translate(166.875,680.625) rotate(180)"><title>Sheet.1041</title><path d="M0 410.25 L33.46 410.25" class="st12"/></g></g></svg>